<svg xmlns="http://www.w3.org/2000/svg" version="1.1" xmlns:xlink="http://www.w3.org/1999/xlink" xmlns:svgjs="http://svgjs.dev/svgjs" width="1024" height="1024"><svg version="1.1" id="SvgjsSvg1022" width="1024" height="1024" viewBox="0 0 1024 1024" sodipodi:docname="snippr.svg" inkscape:version="1.3.2 (091e20e, 2023-11-25, custom)" xmlns:inkscape="http://www.inkscape.org/namespaces/inkscape" xmlns:sodipodi="http://sodipodi.sourceforge.net/DTD/sodipodi-0.dtd" xmlns="http://www.w3.org/2000/svg" xmlns:svg="http://www.w3.org/2000/svg">
  <defs id="SvgjsDefs1021"></defs>
  <sodipodi:namedview id="SvgjsSodipodi:namedview1020" pagecolor="#ffffff" bordercolor="#000000" borderopacity="0.25" inkscape:showpageshadow="2" inkscape:pageopacity="0.0" inkscape:pagecheckerboard="0" inkscape:deskcolor="#d1d1d1" showgrid="false" inkscape:zoom="0.56140411" inkscape:cx="129.14049" inkscape:cy="446.20264" inkscape:window-width="1920" inkscape:window-height="1009" inkscape:window-x="-8" inkscape:window-y="-8" inkscape:window-maximized="1" inkscape:current-layer="g1"></sodipodi:namedview>
  <g inkscape:groupmode="layer" inkscape:label="Image" id="SvgjsG1019">
    <path style="fill: rgb(0, 0, 0); stroke-width: 1.38347; --darkreader-inline-fill: var(--darkreader-text-000000, #e3e1de);" d="m 366.5364,987.10883 c -35.06191,-4.21999 -79.17873,-22.14616 -114.58768,-46.56088 -41.32066,-28.4909 -76.67774,-86.23428 -85.32424,-139.34716 -3.45475,-21.22158 -4.1658,-55.9096 -1.54556,-75.39911 5.54903,-41.27385 21.07327,-81.2522 42.65947,-109.85753 8.56583,-11.35114 27.29969,-31.9481 29.05825,-31.9481 0.83534,0 15.70489,14.10017 33.04346,31.33372 l 31.52465,31.33372 -8.04807,9.8245 c -22.93303,27.99498 -36.29415,55.74265 -40.32076,83.73602 -2.08629,14.50407 -0.90059,37.45216 2.61445,50.60076 10.68802,39.9802 39.64278,74.88208 77.03102,92.85269 51.12619,24.57371 109.82269,18.42938 155.64033,-16.29238 14.82826,-11.23723 188.22562,-185.65761 199.20557,-200.38086 10.29467,-13.80434 19.37443,-32.21878 23.53445,-47.72969 3.77144,-14.06203 5.28678,-48.87319 2.86986,-65.92777 -6.26013,-44.17353 -17.68028,-63.26934 -67.15708,-112.29444 -33.40373,-33.09878 -45.73755,-43.20373 -58.65855,-48.05822 -9.86588,-3.70667 -24.86001,-4.88921 -35.07482,-2.76623 -15.69753,3.26247 -23.55343,8.58927 -47.77191,32.39231 -14.63063,14.37967 -22.493,23.10414 -22.51465,24.98339 -0.0229,1.99205 19.6339,22.41094 63.37846,65.83552 74.02542,73.48394 71.57929,70.28147 70.53445,92.34388 -0.95948,20.25938 -2.63701,23.12932 -29.17908,49.92027 -24.1182,24.34434 -38.8971,36.45639 -53.35344,43.72584 -20.63914,10.37848 -47.24832,15.74278 -69.07288,13.92481 -25.91662,-2.15885 -56.12477,-14.30758 -79.80886,-32.09651 -22.15041,-16.63701 -103.58114,-99.31922 -118.05932,-119.87371 -12.9142,-18.33416 -25.40614,-47.35807 -32.02736,-74.4127 -11.07735,-45.26264 -8.17999,-97.65342 7.60263,-137.47303 14.73594,-37.17879 34.3135,-63.66606 82.86954,-112.11754 C 447.64297,115.59903 476.3193,88.015061 491.5718,77.729807 525.2327,55.031169 560.27398,41.532101 596.18288,37.430113 c 20.2385,-2.311915 61.56169,-0.887605 79.27921,2.732534 46.15274,9.430213 85.07577,29.452396 121.0689,62.278423 66.34493,60.50711 89.52166,157.94791 58.90077,247.63352 -8.19649,24.0067 -16.57634,38.72903 -37.0337,65.06356 -6.1746,7.9485 -11.90596,15.35275 -12.73634,16.45387 -1.23293,1.63494 -4.78437,-1.16494 -19.36857,-15.26972 -9.82234,-9.49948 -24.24006,-23.05542 -32.03938,-30.12432 -7.7993,-7.06891 -14.18056,-13.04204 -14.18056,-13.27365 0,-0.23158 3.75175,-5.59728 8.33723,-11.92373 10.40852,-14.36038 20.9163,-35.35703 25.83485,-51.62328 3.4484,-11.40427 3.7693,-14.42885 3.81623,-35.97022 0.0468,-21.48731 -0.27539,-24.6882 -3.72989,-37.05415 -9.09168,-32.54526 -26.79266,-58.29042 -54.08876,-78.66927 -27.28179,-20.36817 -53.12206,-29.72305 -86.15007,-31.18865 -36.09397,-1.60165 -64.37717,6.36168 -91.16402,25.66781 -5.57363,4.01711 -48.54622,45.61775 -101.23913,98.00703 -97.37259,96.81146 -99.29883,98.95948 -111.19336,123.99542 -2.95349,6.21657 -7.05663,16.9059 -9.1181,23.75409 -3.35605,11.1487 -3.75604,14.69445 -3.82353,33.895 -0.0568,16.15006 0.55536,24.17603 2.47965,32.51154 5.31652,23.02986 16.80314,45.67605 31.76043,62.61653 15.9652,18.08203 81.92491,84.18803 88.52507,88.7214 9.92455,6.81674 20.53391,10.0778 33.43549,10.27724 12.14844,0.1878 20.33617,-2.65591 33.27162,-11.55574 7.8532,-5.40314 21.37542,-18.9713 21.37542,-21.44805 0,-1.00211 -26.70691,-28.48196 -59.34872,-61.0663 -53.38636,-53.29235 -59.78565,-60.15554 -63.69765,-68.31478 -10.27275,-21.42596 -5.96993,-48.3367 11.39351,-71.25728 3.49462,-4.61305 20.72112,-22.18911 38.28114,-39.05792 29.22001,-28.06984 32.90761,-31.14505 43.48844,-36.26647 6.35864,-3.07776 17.70697,-7.22226 25.21851,-9.21001 12.06883,-3.19374 16.47331,-3.63195 37.86805,-3.7676 31.35203,-0.19879 47.26218,3.38113 73.32389,16.49853 24.72753,12.44586 44.13773,29.0605 90.87144,77.78367 33.01174,34.41705 42.34515,46.70145 54.47233,71.6953 12.70708,26.18897 20.54057,56.80427 23.39414,91.43016 2.39877,29.10735 -1.88495,64.65923 -11.12617,92.33925 -8.54094,25.58254 -26.12061,57.29916 -42.24016,76.20824 -11.53354,13.52947 -201.53714,203.13593 -210.38028,209.94059 -26.91318,20.70923 -60.8352,35.91298 -98.13196,43.98247 -10.90964,2.36041 -19.44482,3.04831 -42.04918,3.389 -15.59863,0.23511 -30.5401,0.16521 -33.20327,-0.15532 z" id="SvgjsPath1018" data-darkreader-inline-fill=""></path>
  </g>
</svg><style>@media (prefers-color-scheme: light) { :root { filter: none; } }
@media (prefers-color-scheme: dark) { :root { filter: invert(100%); } }
</style></svg>