<svg xmlns="http://www.w3.org/2000/svg" width="1433" height="1433" shape-rendering="geometricPrecision" text-rendering="geometricPrecision" image-rendering="optimizeQuality" fill-rule="evenodd" clip-rule="evenodd">
  <path d="M369.5 85.5c69.758-6.636 135.424 5.53 197 36.5 24.756 13.182 46.756 30.349 66 51.5 2.763.604 5.097 1.938 7 4 2.866 6.205 7.2 11.205 13 15 1.863 4.536 4.863 8.203 9 11a3.647 3.647 0 0 1-1 1.5 109.14 109.14 0 0 1 10.5 14.5c2.768.708 3.601 2.208 2.5 4.5a352.796 352.796 0 0 1 16 22.5c-.929 1.822-.262 3.155 2 4a224.769 224.769 0 0 0 13 24c-1.071 1.825-.404 2.992 2 3.5a3.647 3.647 0 0 0-1 1.5 894.033 894.033 0 0 1 14 37c-1.449 2.108-.949 3.775 1.5 5 .711 2.399.544 4.732-.5 7 2.758 5.641 4.425 11.641 5 18a218.09 218.09 0 0 1 2 51 4.457 4.457 0 0 0-2 1.5c-38.332.5-76.665.667-115 .5a273.16 273.16 0 0 1-7-32 124.228 124.228 0 0 0-7-21 4.933 4.933 0 0 1 1-2.5 241.027 241.027 0 0 0-16-35.5l1-2a66.962 66.962 0 0 1-6.5-12 121.278 121.278 0 0 0-7.5-9 3.647 3.647 0 0 1 1-1.5c-5.651-4.472-9.984-9.972-13-16.5-1.942-2.963-4.608-4.629-8-5v-4h-4v-3a1009.453 1009.453 0 0 0-30-22.5c-47.058-26.085-97.725-35.252-152-27.5a235.953 235.953 0 0 1-27 6.5c-6.595 3.425-13.595 6.092-21 8-1.912 2.788-4.579 4.121-8 4a60.286 60.286 0 0 1-11.5 6.5 39.045 39.045 0 0 0-5.5 5c-3 1.333-6 1.333-9 0-3-3.667-6.333-7-10-10a3.647 3.647 0 0 1 1-1.5c-9.45-10.124-19.784-19.124-31-27a152.016 152.016 0 0 1-22-7 86.75 86.75 0 0 0-30 2.5c-6.022 2.17-12.022 4.337-18 6.5a190.879 190.879 0 0 1-25.5 14.5c-4.133.031-5.966-1.969-5.5-6 4.913-2.246 8.579-5.912 11-11l9-9c.929-1.189 1.262-2.522 1-4 1.478.262 2.811-.071 4-1a19.887 19.887 0 0 1 4-3.5c-1.333-1-1.333-2 0-3l4-1a120.496 120.496 0 0 1 9-9.5 152.738 152.738 0 0 0 26-20.5l7-3a111.191 111.191 0 0 1 30-17l3-3a9427.1 9427.1 0 0 0 45-19 1698.904 1698.904 0 0 0 31-8.5c14.887-3.851 29.887-6.351 45-7.5.556-.383.889-.883 1-1.5Z" opacity=".972"/>
  <path d="M129.5 226.5c3.31-.039 5.976 1.294 8 4 3.88 6.706 8.214 13.706 13 21 .825.886 1.825 1.219 3 1 .344 3.695 1.678 7.028 4 10l2 1a100.604 100.604 0 0 0 5.5 10 38.929 38.929 0 0 0 5.5 5 3.647 3.647 0 0 1-1 1.5 242.114 242.114 0 0 0 9 10.5 27.56 27.56 0 0 1 4 8c2.515.7 3.182 2.033 2 4a63.06 63.06 0 0 1 9 10 78.436 78.436 0 0 0 7 11 3.647 3.647 0 0 1-1 1.5 85.237 85.237 0 0 1 9 12.5l1 3.5c-9.3 37.248-7.3 73.748 6 109.5a3.647 3.647 0 0 1-1 1.5 1263.886 1263.886 0 0 1 14 29.5c-.51 1.588-1.51 2.755-3 3.5-4.4 1.336-8.066.336-11-3a805.68 805.68 0 0 0-57-25l-3-3a342.76 342.76 0 0 1-41-19c-10.514-2.731-20.18-7.231-29-13.5-2.436-3.029-3.436-6.529-3-10.5a1487.074 1487.074 0 0 0 3-68.5 205.577 205.577 0 0 0 4-22 22.72 22.72 0 0 1 3-7c-1.617-3.122-.95-5.622 2-7.5-.616-1.4-.95-2.9-1-4.5 3.256-11.521 7.922-22.521 14-33-1.614-2.657-.948-4.49 2-5.5a3.647 3.647 0 0 1-1-1.5 137.367 137.367 0 0 1 14-23c-1.071-1.825-.404-2.992 2-3.5a3.647 3.647 0 0 1-1-1.5 34.807 34.807 0 0 0 7-7Z" opacity=".961"/>
  <path fill="gray" d="M243.5 250.5v6h3c2 .667 3.333 2 4 4v5h4l4 4v5h3c3.75 2.581 6.584 5.915 8.5 10a47.836 47.836 0 0 0 5.5 6c.111 4.566 2.444 7.233 7 8a45.408 45.408 0 0 0 8 8 3.647 3.647 0 0 1-1 1.5 38.47 38.47 0 0 1 5 5.5c-.262 1.478.071 2.811 1 4 .798-.457 1.131-1.124 1-2 2.033 3.872 5.033 7.039 9 9.5a3.647 3.647 0 0 0-1 1.5c3.823 2.979 6.656 6.646 8.5 11l7.5 6.5c-1.274.977-1.274 1.811 0 2.5v3h3c1.334 1.659 3.001 2.992 5 4 .929 1.189 1.262 2.522 1 4v3h3c5.8 5.307 10.634 11.307 14.5 18a171.121 171.121 0 0 0 14.5 17v5h3c2.312.978 3.978 2.645 5 5v4h3a25.619 25.619 0 0 0 6 6v5h3a39.437 39.437 0 0 1 7 8v4h3a758.214 758.214 0 0 0 30 36v5h3c3.78 2.607 6.613 5.94 8.5 10a38.47 38.47 0 0 0 5.5 5v5h3a21.614 21.614 0 0 1 4 5v5h4c4.729 4.483 8.729 9.483 12 15-.667 4 1 5.667 5 5a344.503 344.503 0 0 1 17 19 3.647 3.647 0 0 1-1 1.5c5.029 4.176 9.029 9.009 12 14.5v5h3a77.462 77.462 0 0 1 11 10c2.289 4.285 5.289 7.952 9 11v5h3c1.654 1.979 3.654 3.645 6 5l-1 2a1251.043 1251.043 0 0 0 16 17c-.971 1.462-.638 2.795 1 4 3.803 2.627 6.637 5.96 8.5 10a412.891 412.891 0 0 0 18.5 20 3.647 3.647 0 0 1-1 1.5 8.43 8.43 0 0 0 4 .5 41.333 41.333 0 0 1 2 10 72.13 72.13 0 0 1-17.5-5 239.538 239.538 0 0 0-37.5-17c.219-1.175-.114-2.175-1-3-.798.457-1.131 1.124-1 2a228.285 228.285 0 0 0-26-12c.219-1.175-.114-2.175-1-3-.798.457-1.131 1.124-1 2l-22-11v-3c-1.679-.215-2.679.452-3 2a731.103 731.103 0 0 1-29-14v-3c-1.679-.215-2.679.452-3 2-2-1.333-3.667-3-5-5v-4h-3c-1.468-1.279-2.135-2.946-2-5v-5h-3c-1.917-.906-3.583-2.239-5-4-7.573-12.537-15.573-24.537-24-36v-5h-3c-2.673-2.872-4.84-6.205-6.5-10-1.011-.837-2.178-1.17-3.5-1l-2-8c.423-2.281-.244-3.948-2-5-.321-1.548-1.321-2.215-3-2a185.977 185.977 0 0 1-3-2 282.297 282.297 0 0 1-5-10v-5h-3c-1.917-.906-3.583-2.239-5-4a48.16 48.16 0 0 0-6-10c-.825-.886-1.825-1.219-3-1-.17-1.322.163-2.489 1-3.5a1304.269 1304.269 0 0 1-16-20.5c1.291-1.027 1.291-2.027 0-3v-5h-3a435.069 435.069 0 0 1-6-8v-5h-4c-2.152-.577-2.485-1.744-1-3.5a136.455 136.455 0 0 1-7-7.5c-1.524-4.197-4.191-7.53-8-10-1.247-1.506-1.247-3.006 0-4.5l-5-4.5a140.133 140.133 0 0 1-8-13c.215-1.679-.452-2.679-2-3a81.316 81.316 0 0 0-3-2.5 3.647 3.647 0 0 0 1-1.5 111.4 111.4 0 0 1-7-8 100.604 100.604 0 0 0-5.5-10 6.978 6.978 0 0 0-3.5-2.5 3.647 3.647 0 0 0 1-1.5c-4.34-3.347-7.174-7.68-8.5-13-1.506-1.674-3.339-2.674-5.5-3-.17-1.322.163-2.489 1-3.5a214.169 214.169 0 0 0-11-13.5 311.223 311.223 0 0 1-18-28v-5h-3c0-.667-.333-1-1-1v-5h-3c-3.974-6.634-8.641-12.967-14-19a100.604 100.604 0 0 0-5.5-10l-5.5-4.5a3.647 3.647 0 0 0 1-1.5 51.624 51.624 0 0 0-7-10 16.873 16.873 0 0 1-1-8 113.625 113.625 0 0 0 12-3.5c8.763-1.197 17.097.136 25 4a22.202 22.202 0 0 0 8 5.5c3.829 3.704 7.162 7.704 10 12Z" opacity=".915"/>
  <path fill="#8080c0" d="M243.5 250.5c.838.342 1.172 1.008 1 2-.215 1.679.452 2.679 2 3v1h-3v-6Z" opacity=".351"/>
  <path fill="#8080fb" d="M244.5 252.5c1.548.321 2.215 1.321 2 3-1.548-.321-2.215-1.321-2-3Z" opacity=".211"/>
  <path fill="#ba80ae" d="M250.5 260.5c.667 0 1 .333 1 1v3h3v1h-4v-5Z" opacity=".363"/>
  <path fill="#ff7ff9" d="M251.5 261.5c1.69.356 2.69 1.356 3 3h-3v-3Z" opacity=".24"/>
  <path fill="#8080ce" d="M258.5 269.5c.838.342 1.172 1.008 1 2 0 1.333.667 2 2 2v1h-3v-5Z" opacity=".412"/>
  <path fill="#8080ff" d="M259.5 271.5c1.333 0 2 .667 2 2 0-1.333-.667-2-2-2Z" opacity=".285"/>
  <path fill="#8080e1" d="M220.5 285.5h3v5c-1.779-1.17-2.779-2.836-3-5Z" opacity=".541"/>
  <path fill="#8080ea" d="M224.5 291.5h3v5a20.673 20.673 0 0 0-4-3.5c.556-.383.889-.883 1-1.5Z" opacity=".207"/>
  <path fill="#8080f0" d="M275.5 290.5c3.09 2.084 5.423 4.751 7 8-4.556-.767-6.889-3.434-7-8Z" opacity=".279"/>
  <path fill="#8080e4" d="M294.5 313.5c1 .333 1.667 1 2 2 .131.876-.202 1.543-1 2-.929-1.189-1.262-2.522-1-4Z" opacity=".435"/>
  <path fill="#8080e6" d="M320.5 346.5h3v3-3h-3Z" opacity=".541"/>
  <path fill="#8180e6" d="M329.5 357.5c3.067-.379 4.067.621 3 3h-3v-3Z" opacity=".467"/>
  <path fill="#8080fb" d="M286.5 383.5c1.548.321 2.215 1.321 2 3h-3c-.237-1.291.096-2.291 1-3Z" opacity=".163"/>
  <path fill="#8080c3" d="M361.5 395.5c.667 0 1 .333 1 1-.215 1.679.452 2.679 2 3v1h-3v-5Z" opacity=".259"/>
  <path fill="#8080fd" d="M362.5 396.5c2.507.132 3.174 1.132 2 3-1.548-.321-2.215-1.321-2-3Z" opacity=".167"/>
  <path fill="#8080e7" d="M369.5 405.5c2.032.548 3.032 1.881 3 4h-3v-4Z" opacity=".396"/>
  <path fill="#8080ec" d="M378.5 415.5c1.779 1.17 2.779 2.836 3 5h-3v-5Z" opacity=".229"/>
  <path fill="#f380ed" d="M388.5 428.5h3v4h-3v-4Z" opacity=".18"/>
  <path fill="#8080fa" d="M317.5 430.5h3v3c-2 0-3-1-3-3Z" opacity=".23"/>
  <path fill="#8080b0" d="M317.5 430.5v-1h4v5c-.667 0-1-.333-1-1v-3h-3Z" opacity=".984"/>
  <path d="M14.5 432.5c6.965.813 13.299 3.313 19 7.5 4.417.134 8.084 1.801 11 5a350.814 350.814 0 0 1 41 18.5 14307.569 14307.569 0 0 1 204 94 61.04 61.04 0 0 0 7.5 2 654.231 654.231 0 0 0 64.5 30.5 290.688 290.688 0 0 1 26 13 43.385 43.385 0 0 0 8 2c9.666 6.901 20.333 11.901 32 15l3 3a494.929 494.929 0 0 1 54 24.5 20.2 20.2 0 0 0 6 1.5 11172.359 11172.359 0 0 1 82 39.5 185.226 185.226 0 0 1 38 17.5c5.882.574 10.882 2.907 15 7a66.258 66.258 0 0 1 17 8 43.385 43.385 0 0 0 8 2 1544.932 1544.932 0 0 0 74 34.5c1.609 2.44 3.943 3.607 7 3.5 3.332 3.33 7.332 5.33 12 6a369.167 369.167 0 0 1 22 11.5 127.053 127.053 0 0 0 20 6.5 160.216 160.216 0 0 1 18 9 379.594 379.594 0 0 1 39 12.5c33.537 8.698 67.87 14.032 103 16 21.504-1.421 42.17-6.087 62-14a408.583 408.583 0 0 1 59-25.5c8.08-1.68 16.08-3.346 24-5 25.14-4.371 49.81-2.537 74 5.5 32.28 14.806 56.61 37.306 73 67.5l3 2.5c-.93 1.822-.26 3.155 2 4a145.082 145.082 0 0 0 11 20c-.93 1.822-.26 3.155 2 4a3.627 3.627 0 0 1-1 1.5 24.165 24.165 0 0 1 4.5 8.5 43.967 43.967 0 0 1 6.5 8.5 119.586 119.586 0 0 0 16 10 602.831 602.831 0 0 0 21 4.5c8.37-1.328 16.7-2.828 25-4.5 9.31-4.323 18.65-8.657 28-13a228.105 228.105 0 0 1 16-12 153.163 153.163 0 0 0 26-33.5c-.93-1.822-.26-3.155 2-4-.33-.667-.67-1.333-1-2a18.505 18.505 0 0 0 5-4l4.5-1c3.07-.019 5.91.647 8.5 2 2.03 16.914-2.63 31.914-14 45 .21.586.54 1.086 1 1.5a292.807 292.807 0 0 1-20 21l-3 1a55.74 55.74 0 0 1-6 6.5 356.229 356.229 0 0 1-31 17.5 555.995 555.995 0 0 1-47 15 1020.138 1020.138 0 0 0-47 8c-4.59 3.869-7.59 8.369-9 13.5a18.505 18.505 0 0 0-5 4 22.631 22.631 0 0 1-4 8c-7.67 7-15 14.333-22 22-4.53 2.75-8.86 5.75-13 9-2.8 1.69-5.8 2.86-9 3.5a38.599 38.599 0 0 1-11 7c-21.99 8.44-44.99 12.11-69 11-6.21-1.66-12.55-3.16-19-4.5-3.67-.83-7-2.33-10-4.5-11.63-.72-21.63-5.05-30-13-1.67-.33-3.33-.67-5-1a684.587 684.587 0 0 0-24-19.5c-3.16-5.972-7.49-10.972-13-15l-15-30-2-10-7-18a3.647 3.647 0 0 1 1-1.5 887.6 887.6 0 0 0-5-19.5 264.942 264.942 0 0 1-9.5-19c-4.971-5.362-10.804-9.362-17.5-12-13.052-3.356-26.385-5.523-40-6.5a3886.714 3886.714 0 0 0-50-10.5 32.448 32.448 0 0 1-6-2.5 566.332 566.332 0 0 0-55-5.5l-20 1c-6.938 2.114-14.105 3.447-21.5 4a798.01 798.01 0 0 1-42.5 14.5 11.494 11.494 0 0 1-5 3.5c-5.667 1.333-11.333 1.333-17 0a7.248 7.248 0 0 0-2-2.5l-14-6a129.58 129.58 0 0 0-12-8.5 2327.33 2327.33 0 0 1-79-45.5 110.274 110.274 0 0 1-24-14.5 152.838 152.838 0 0 1-15-7 1166.592 1166.592 0 0 1-38-23.5l-5-1a499.153 499.153 0 0 0-58-33.5 88 88 0 0 0-22-12.5 8106.295 8106.295 0 0 0-16-11l-6-2a159.675 159.675 0 0 1-12-8.5 131.904 131.904 0 0 0-14-6.5 97.875 97.875 0 0 0-25.5-14.5 209.417 209.417 0 0 0-19.5-13.5l-5-1a964.56 964.56 0 0 0-58-33.5 87.565 87.565 0 0 0-22-12.5c-7.728-6.595-16.395-11.595-26-15-8.059-6.699-17.059-11.866-27-15.5a441.234 441.234 0 0 0-34-21 4557.393 4557.393 0 0 1-136-78.5l-7-6c.457-.414.79-.914 1-1.5-2.646-1.632-3.979-3.965-4-7h-3c.22-9.99.22-19.99 0-30 1.679.215 2.679-.452 3-2Zm599 309c1.788-1.122 3.788-1.289 6-.5a84.853 84.853 0 0 1 8 7.5c3.82 8.706 3.82 17.373 0 26a51.057 51.057 0 0 1-9 8c-.522-3.535-1.522-6.868-3-10a63.043 63.043 0 0 0 .5-19 9.454 9.454 0 0 0-2.5-1.5c1.32-3.601 1.32-7.101 0-10.5Zm-17 1h4a204.848 204.848 0 0 0 4 40 21.341 21.341 0 0 1-9-1.5c-10.801-9.788-12.467-20.954-5-33.5 2.361-1.321 4.361-2.988 6-5Zm505 65c37.88.706 70.05 14.373 96.5 41a10.29 10.29 0 0 0 1.5 4c3.87 5.118 7.7 10.118 11.5 15a525.995 525.995 0 0 1 8.5 24c-1.07 2.938-1.24 5.938-.5 9a9.39 9.39 0 0 0 2.5 1.5c-1.33 4.333-1.33 8.667 0 13-3.12 1.72-3.78 4.22-2 7.5-1.51 3.803-2.51 7.803-3 12a64.459 64.459 0 0 0-6 14c-.82.886-1.82 1.219-3 1 .16 2.027 0 4.027-.5 6-7 11.673-16.17 21.506-27.5 29.5a388.085 388.085 0 0 1-22 10.5c-46.61 15.08-86.44 4.74-119.5-31a89.549 89.549 0 0 0-6.5-10c1.18-1.967.51-3.3-2-4a245.928 245.928 0 0 0-13-28 154.008 154.008 0 0 0 0-35c2.83-4.207 4.5-8.874 5-14a131.045 131.045 0 0 0 8-18c9.29-13.959 21.29-25.959 36-36a178.094 178.094 0 0 0 17-7.5l18-3c.56-.383.89-.883 1-1.5Z" opacity=".949"/>
  <path fill="#8080fd" d="M327.5 443.5c1.548.321 2.215 1.321 2 3-1.548-.321-2.215-1.321-2-3Z" opacity=".171"/>
  <path fill="#8080c5" d="M327.5 443.5v-1h3v5c-.667 0-1-.333-1-1 .215-1.679-.452-2.679-2-3Z" opacity=".737"/>
  <path fill="#8080c6" d="M421.5 468.5c.667 0 1 .333 1 1-.215 1.679.452 2.679 2 3v1h-3v-5Z" opacity=".386"/>
  <path fill="#8080fe" d="M422.5 469.5c1.406.473 2.073 1.473 2 3-1.548-.321-2.215-1.321-2-3Z" opacity=".329"/>
  <path fill="#8080fe" d="M359.5 490.5c1.548.321 2.215 1.321 2 3-2.222-.475-2.889-1.475-2-3Z" opacity=".175"/>
  <path fill="#8080bc" d="M359.5 490.5v-1h3v5c-.667 0-1-.333-1-1 .215-1.679-.452-2.679-2-3Z" opacity=".965"/>
  <path fill="#8080ee" d="M438.5 488.5c1.779 1.17 2.779 2.836 3 5h-3v-5Z" opacity=".208"/>
  <path fill="#c080b2" d="M445.5 498.5c.667 0 1 .333 1 1v3h3v1h-4v-5Z" opacity=".506"/>
  <path fill="#ff7ffb" d="M446.5 499.5c1.69.356 2.69 1.356 3 3h-3v-3Z" opacity=".215"/>
  <path fill="#8080cb" d="M370.5 507.5v-1c1.679-.215 2.679.452 3 2a5.727 5.727 0 0 0-3-1Z" opacity=".578"/>
  <path fill="#8080ee" d="M370.5 507.5a5.727 5.727 0 0 1 3 1c1.756 1.052 2.423 2.719 2 5a21.58 21.58 0 0 1-5-6Z" opacity=".322"/>
  <path fill="#8080f3" d="M461.5 518.5a13.227 13.227 0 0 0 5 2v3c-4 .667-5.667-1-5-5Z" opacity=".28"/>
  <path fill="#8080fd" d="M387.5 533.5c1.548.321 2.215 1.321 2 3-1.548-.321-2.215-1.321-2-3Z" opacity=".201"/>
  <path fill="#8080c4" d="M387.5 533.5v-1h3v5c-.667 0-1-.333-1-1 .215-1.679-.452-2.679-2-3Z" opacity=".413"/>
  <path fill="#d080c0" d="M494.5 558.5c.667 0 1 .333 1 1-.215 1.679.452 2.679 2 3v1h-3v-5Z" opacity=".42"/>
  <path fill="#ff7ffd" d="M495.5 559.5c2.507.132 3.174 1.132 2 3-1.548-.321-2.215-1.321-2-3Z" opacity=".175"/>
  <path fill="#8080fd" d="M419.5 578.5c1.548.321 2.215 1.321 2 3-2.551-.168-3.218-1.168-2-3Z" opacity=".166"/>
  <path fill="#8080b9" d="M419.5 578.5v-1h3v5c-.667 0-1-.333-1-1 .215-1.679-.452-2.679-2-3Z" opacity=".973"/>
  <path fill="#f780e7" d="M517.5 584.5c1.779 1.17 2.779 2.836 3 5h-3v-5Z" opacity=".875"/>
  <path fill="#8080ee" d="M424.5 587.5h3v4c-2.032-.548-3.032-1.881-3-4Z" opacity=".512"/>
  <path fill="#8080d3" d="M435.5 597.5c-1.291.237-2.291-.096-3-1 .321-1.548 1.321-2.215 3-2v3Z" opacity=".357"/>
  <path fill="#8080ce" d="M467.5 612.5c-1.291.237-2.291-.096-3-1 .321-1.548 1.321-2.215 3-2v3Z" opacity=".349"/>
  <path fill="#8080e3" d="M491.5 624.5c-.992.172-1.658-.162-2-1-.131-.876.202-1.543 1-2 .886.825 1.219 1.825 1 3Z" opacity=".031"/>
  <path fill="#8080e6" d="M519.5 637.5c-.992.172-1.658-.162-2-1-.131-.876.202-1.543 1-2 .886.825 1.219 1.825 1 3Z" opacity=".047"/>
  <path fill="gray" d="M680.5 885.5c-.219 1.175.114 2.175 1 3 .798-.457 1.131-1.124 1-2a207.227 207.227 0 0 1 16 10.5c3.777.573 7.11-.427 10-3a24.935 24.935 0 0 1 7-.5c-.535 19.09.132 38.09 2 57-1.756 1.052-2.423 2.719-2 5h4c.214 1.644-.12 3.144-1 4.5 2.555 1.258 3.222 3.091 2 5.5 5.516 14.232 10.516 28.232 15 42-.904.71-1.237 1.71-1 3h3a4616.278 4616.278 0 0 1 27 73c-.333.67-.667 1.33-1 2 6.699 9.87 15.366 17.37 26 22.5a612.571 612.571 0 0 1 68 8.5v3c1.291.24 2.291-.1 3-1v-1c.891.61 1.891.94 3 1v3c1.679.21 2.679-.45 3-2 1.667.67 3.333 1.33 5 2v3c1.447 1.39 2.447 1.05 3-1 11.202 2.44 20.536 7.94 28 16.5a41.1 41.1 0 0 1 8 4.5v3c1.291.24 2.291-.1 3-1 12.291 12.04 22.624 25.04 31 39a183.597 183.597 0 0 1 13 35c-.833 2-.666 3.67.5 5a569.17 569.17 0 0 1 2.5 24.5c-.98 9.82-1.814 19.66-2.5 29.5l-1.5 1.5c.88 1.36 1.214 2.86 1 4.5a4.949 4.949 0 0 0-3 .5c.616 1.4.949 2.9 1 4.5a98.468 98.468 0 0 1-11 25c-.765 1.11-1.765 1.78-3 2h-3v5c-.487 4.32-2.487 7.65-6 10-1.679-.21-2.679.45-3 2-1.756 1.05-2.423 2.72-2 5a256.31 256.31 0 0 1-24 22.5 193.93 193.93 0 0 1-26 12.5c-.321-1.55-1.321-2.21-3-2v3c-2.843.42-5.51 1.42-8 3a43.052 43.052 0 0 1-13 1c-1-2.67-2-2.67-3 0h-22c-.12-1.09-.787-1.75-2-2-1.213.25-1.88.91-2 2a57.192 57.192 0 0 1-15-1 82.104 82.104 0 0 0-14-5v-3c-1.291-.24-2.291.1-3 1-2.218-.11-4.218-.78-6-2v-3c-1.599-.27-2.932.07-4 1-2.442-1.49-5.109-2.49-8-3 .219-1.18-.114-2.18-1-3-.798.46-1.131 1.12-1 2a130.185 130.185 0 0 1-18-14v-4c-1.983-.34-3.317.32-4 2a92.83 92.83 0 0 1-11-12c.16-1.7-.006-3.37-.5-5-.671-.75-1.504-1.09-2.5-1h-3v-6h-3a53.692 53.692 0 0 1-8-12c-.104-3.71-1.104-7.04-3-10h-2c-.709-.9-1.709-1.24-3-1-.134-1.79.199-3.46 1-5 1.476-2.21.809-3.54-2-4-2.761-5.95-5.094-12.28-7-19-4.767-31.6-3.433-62.94 4-94 1.201-4.45 2.868-8.62 5-12.5-.923-2.04-1.256-4.21-1-6.5 3.261.4 3.928-.77 2-3.5l8-31a533.578 533.578 0 0 1-3-32.5 3016.67 3016.67 0 0 1-5-24c1.109-1.46.609-2.46-1.5-3-.728-2.73-.562-5.4.5-8a415.333 415.333 0 0 0-14-37.5c1.443-2.08.776-2.91-2-2.5-.256-2.29.077-4.46 1-6.5a37.879 37.879 0 0 1-6-11.5c.934-1.068 1.268-2.401 1-4h-3a88.602 88.602 0 0 0-6-11c1.071-1.825.404-2.992-2-3.5a3.647 3.647 0 0 0 1-1.5c-2.19-1.507-3.524-3.507-4-6 .934-1.068 1.268-2.401 1-4h-3c-1.306-.967-1.973-2.301-2-4 .904-.709 1.237-1.709 1-3h-3c-2.284-2.872-3.617-5.872-4-9 .423-2.281-.244-3.948-2-5v-4h-3c-2.555-5.286-5.888-10.12-10-14.5a3.943 3.943 0 0 1 1-2c-2.404-.508-3.071-1.675-2-3.5a74.003 74.003 0 0 1-11-12 427.62 427.62 0 0 1-12.5-21l-7.5-6.5a3.647 3.647 0 0 0 1-1.5c-4.445-4.181-8.112-8.848-11-14a18.924 18.924 0 0 0-3-5 3.647 3.647 0 0 1 1-1.5 65.052 65.052 0 0 0-11-12.5 25.879 25.879 0 0 1-1-10 31.774 31.774 0 0 1 7 2.5 129.58 129.58 0 0 0 12 8.5 901.784 901.784 0 0 1 61 34Zm138 259h25c2.687-.16 5.354 0 8 .5a639.999 639.999 0 0 1 34 15c7.667 7.83 15.333 15.67 23 23.5a3.595 3.595 0 0 1-1 1.5c1.421 3.13 3.921 5.97 7.5 8.5.014 3.4 1.347 6.07 4 8 1.409 3.4 2.909 6.73 4.5 10-1.614 2.66-.948 4.49 2 5.5-.597 1.06-.93 2.23-1 3.5 4.92 12.96 6.586 26.29 5 40a895.398 895.398 0 0 0-5 21c.108.94.441 1.78 1 2.5-2.624.58-3.291 1.91-2 4-1.464 1.86-2.464 4.03-3 6.5a285.038 285.038 0 0 1-11 17 6.575 6.575 0 0 0-3 3 6.575 6.575 0 0 0-3 3c-1 .33-1.667 1-2 2-1 .33-1.667 1-2 2-2.032.55-3.032 1.88-3 4a199.76 199.76 0 0 1-13 9.5c-5.791 2.9-11.458 5.73-17 8.5-1.291-.24-2.291.1-3 1a61.021 61.021 0 0 0-16 2c-1.679-.21-2.679.45-3 2-7.696.33-15.362 0-23-1-4.631-2.52-9.631-3.52-15-3-.709-.9-1.709-1.24-3-1-.787-1.6-2.12-2.27-4-2 .172-.99-.162-1.66-1-2h-2a62.743 62.743 0 0 1-20-12c-.709-.9-1.709-1.24-3-1a75.412 75.412 0 0 0-8-9c.032-2.12-.968-3.45-3-4-3.121-2.79-5.455-6.12-7-10a892.91 892.91 0 0 0-5-4v-1c0-1.33-.667-2-2-2 .172-.99-.162-1.66-1-2-3.833-7.9-7.833-15.9-12-24 1.213-2.35.547-4.18-2-5.5.559-.72.892-1.56 1-2.5-1.492-2.47-2.158-5.14-2-8-.027-1.7-.694-3.03-2-4v-17c-.014-6.76 1.319-13.26 4-19.5a14.999 14.999 0 0 0-1-4.5c2.674-1 3.341-2.67 2-5 1.189-3.86 3.523-6.86 7-9a20.153 20.153 0 0 0 1.5-6c3.319-4.49 6.819-8.82 10.5-13h1c.901-.79 1.568-1.79 2-3h1c1.604-.79 2.271-2.12 2-4 1.679.21 2.679-.45 3-2 3.438-2.27 6.438-5.1 9-8.5 5.036-2.19 10.036-4.35 15-6.5.992.17 1.658-.16 2-1 .667 0 1-.33 1-1 1.679.21 2.679-.45 3-2 2.218-.11 4.218-.78 6-2h1c.992.17 1.658-.16 2-1 5.24-.95 10.573-1.28 16-1Z" opacity=".895"/>
  <path fill="#8080e7" d="M680.5 885.5c.992-.172 1.658.162 2 1 .131.876-.202 1.543-1 2-.886-.825-1.219-1.825-1-3Z" opacity=".294"/>
  <path d="M48.5 934.5c39.672-.333 79.339 0 119 1l4 2c1.514 3.803 2.514 7.803 3 12 .903 18.971 4.57 37.304 11 55a4.922 4.922 0 0 1-1 2.5c2.622 5.57 4.789 11.4 6.5 17.5 2.755 2.27 4.088 5.27 4 9 .71 1.47 1.876 2.14 3.5 2-.34 2.64.327 4.98 2 7a3.595 3.595 0 0 1-1 1.5c3.776 4.4 6.609 9.24 8.5 14.5a38.868 38.868 0 0 0 5.5 5 3.595 3.595 0 0 1-1 1.5 513.052 513.052 0 0 0 43 48.5 361.4 361.4 0 0 0 68 37 819.112 819.112 0 0 1 34 10.5c6.611.35 12.944 1.68 19 4a466.381 466.381 0 0 0 74 0 125.428 125.428 0 0 1 19-4c33.641-8.66 63.308-24.66 89-48a228.841 228.841 0 0 0 26.5-24.5c1.098-3.25 3.098-5.92 6-8 .483-.95.649-1.95.5-3h4c-.262-1.48.071-2.81 1-4 2.683-2.03 4.349-4.7 5-8l4-3a8778.61 8778.61 0 0 0 20-39c-1.071-1.83-.404-2.99 2-3.5-.597-1.06-.93-2.23-1-3.5a176.106 176.106 0 0 0 9-31 25.598 25.598 0 0 1 4.5-4 46.204 46.204 0 0 1 6.5 5c-.929 1.822-.262 3.155 2 4a120.666 120.666 0 0 0 10 21c1.269 2.19 1.269 4.36 0 6.5 2.502 1.5 4.169 3.66 5 6.5a304.887 304.887 0 0 1 10 26c1.283 2.87 1.283 5.71 0 8.5 2.707 1.2 3.374 3.03 2 5.5 3.633 8.26 5.966 16.93 7 26a300.7 300.7 0 0 1 0 49c-2.78 6.9-5.113 13.9-7 21 1.313 2.02.647 3.19-2 3.5.837 1.01 1.17 2.18 1 3.5-4.094 1.81-7.094 4.81-9 9-8.306 8.31-16.64 16.64-25 25a1308.175 1308.175 0 0 1-35 27.5 254.63 254.63 0 0 0-26 15 658.574 658.574 0 0 1-38 17c-17.458 5.05-34.791 10.05-52 15-13.335.63-26.335 2.3-39 5-28.333.67-56.667.67-85 0l-16-3c-8.337-.62-16.671-1.28-25-2a1515.293 1515.293 0 0 1-60-17 573.915 573.915 0 0 1-62-30 251.205 251.205 0 0 0-32-23 670.708 670.708 0 0 1-39-36.5 10.252 10.252 0 0 1-1.5-4c-8.12-7.12-15.453-14.78-22-23-.617-.95-.451-1.78.5-2.5-2.404-.51-3.071-1.67-2-3.5-2.551-3.79-5.551-7.13-9-10-.447-3.24-2.114-5.57-5-7 1.07-1.83.404-2.99-2-3.5 1.147-2.08.48-3.58-2-4.5l-2-6c-2.268-4.59-5.268-8.59-9-12 1.147-2.08.48-3.58-2-4.5.457-.41.79-.91 1-1.5a307.21 307.21 0 0 1-14-30c.21-.59.543-1.09 1-1.5-2.547-1.32-3.214-3.15-2-5.5a306.193 306.193 0 0 1-11-37c-2.968-18.591-4.968-37.591-6-57l1-18c1.434-1.088 2.434-2.422 3-4Z" opacity=".975"/>
  <path fill="#8080fc" d="M666.5 945.5c1.548.321 2.215 1.321 2 3-1.548-.321-2.215-1.321-2-3Z" opacity=".162"/>
  <path fill="#8080c9" d="M666.5 945.5v-1h3v4h-1c.215-1.679-.452-2.679-2-3Z" opacity=".682"/>
  <path fill="#8080fc" d="M668.5 948.5h1c.734 1.208 1.067 2.541 1 4-1.604-.787-2.271-2.12-2-4Z" opacity=".31"/>
  <path fill="#8080c8" d="M669.5 948.5c1.756 1.052 2.423 2.719 2 5-.667 0-1-.333-1-1 .067-1.459-.266-2.792-1-4Z" opacity=".361"/>
  <path fill="#8080f8" d="M717.5 951.5c1.548.321 2.215 1.321 2 3h-3c-.237-1.291.096-2.291 1-3Z" opacity=".227"/>
  <path fill="#8080a9" d="M717.5 950.5v1c-.904.709-1.237 1.709-1 3h3v1h-4c-.423-2.281.244-3.948 2-5Z" opacity=".273"/>
  <path fill="#8080f8" d="M675.5 962.5h3c.237 1.291-.096 2.291-1 3-1.548-.321-2.215-1.321-2-3Z" opacity=".315"/>
  <path fill="#8080e5" d="M679.5 969.5h3c.268 1.599-.066 2.932-1 4-1.306-.967-1.973-2.301-2-4Z" opacity=".424"/>
  <path fill="#8080e7" d="M692.5 995.5h3c.268 1.599-.066 2.932-1 4-1.306-.967-1.973-2.301-2-4Z" opacity=".467"/>
  <path fill="#f880ed" d="M735.5 1007.5c1.548.32 2.215 1.32 2 3h-3c-.237-1.29.096-2.29 1-3Z" opacity=".592"/>
  <path fill="#8080e9" d="M858.5 1116.5c.992-.17 1.658.16 2 1v1c-1.333 0-2-.67-2-2Z" opacity=".518"/>
  <path fill="#8080ba" d="M857.5 1116.5h1c0 1.33.667 2 2 2-.709.9-1.709 1.24-3 1v-3Z" opacity=".816"/>
  <path fill="#e180d1" d="M863.5 1118.5c1.291-.24 2.291.1 3 1-.321 1.55-1.321 2.21-3 2v-3Z" opacity=".4"/>
  <path fill="#8080e7" d="M871.5 1121.5c.992-.17 1.658.16 2 1 0 1.33-.667 2-2 2v-3Z" opacity=".008"/>
  <path fill="#807fad" d="M873.5 1122.5c.667 0 1 .33 1 1-.553 2.05-1.553 2.39-3 1 1.333 0 2-.67 2-2Z" opacity=".959"/>
  <path fill="#8080c8" d="M843.5 1142.5c-8.403-.63-16.403.03-24 2h-1v-3c8.517-.33 16.85.01 25 1Z"/>
  <path fill="#8080fd" d="M843.5 1142.5v2h-24c7.597-1.97 15.597-2.63 24-2Z" opacity=".606"/>
  <path fill="#8080b1" d="M802.5 1144.5c-1.333 0-2 .67-2 2h-1v-3c1.291-.24 2.291.1 3 1Z" opacity=".555"/>
  <path fill="#e380d2" d="M910.5 1144.5c1.679-.21 2.679.45 3 2-.709.9-1.709 1.24-3 1v-3Z" opacity=".451"/>
  <path fill="#8080e7" d="M802.5 1144.5v1c-.342.84-1.008 1.17-2 1 0-1.33.667-2 2-2Z" opacity=".173"/>
  <path fill="#8080d2" d="M793.5 1148.5c-.321 1.55-1.321 2.21-3 2v-3c1.291-.24 2.291.1 3 1Z" opacity=".175"/>
  <path fill="#8080d7" d="M789.5 1151.5c-.342.84-1.008 1.17-2 1-.219-1.18.114-2.18 1-3 .798.46 1.131 1.12 1 2Z" opacity=".204"/>
  <path fill="#8080ce" d="M763.5 1167.5c-.321 1.55-1.321 2.21-3 2v-4c1.679-.21 2.679.45 3 2Z" opacity=".118"/>
  <path fill="#807fa8" d="M758.5 1173.5h-1c-.06-.54-.393-.88-1-1-.929 1.19-1.262 2.52-1 4h-1v-5c1.983-.34 3.317.32 4 2Z" opacity=".988"/>
  <path fill="#8080ea" d="M757.5 1173.5c-.432 1.21-1.099 2.21-2 3-.262-1.48.071-2.81 1-4 .607.12.94.46 1 1Z" opacity=".076"/>
  <path fill="#8080ec" d="M730.5 1233.5v4h-3v-4h3Z"/>
  <path fill="#f780f0" d="M730.5 1250.5c1.306.97 1.973 2.3 2 4h-3c-.268-1.6.066-2.93 1-4Z" opacity=".313"/>
  <path fill="#8080e9" d="M713.5 1291.5c2.809.46 3.476 1.79 2 4-1.306-.97-1.973-2.3-2-4Z" opacity=".349"/>
  <path fill="#8080c7" d="M747.5 1294.5c.838.34 1.172 1.01 1 2 1.333 0 2 .67 2 2v1h-3v-5Z" opacity=".354"/>
  <path fill="#8080ff" d="M748.5 1296.5c1.333 0 2 .67 2 2-1.333 0-2-.67-2-2Z" opacity=".381"/>
  <path fill="#8080f9" d="M717.5 1301.5h2c.237 1.29-.096 2.29-1 3-2.052-.55-2.385-1.55-1-3Z" opacity=".258"/>
  <path fill="#8080fb" d="M718.5 1307.5h3v3c-1.69-.36-2.69-1.36-3-3Z" opacity=".184"/>
  <path fill="#8080ae" d="M719.5 1301.5c1.896 2.96 2.896 6.29 3 10-.667 0-1-.33-1-1v-3h-3v-3c.904-.71 1.237-1.71 1-3Z" opacity=".568"/>
  <path fill="#8080d3" d="M909.5 1311.5c.285 1.79-.048 3.45-1 5-1.022-.36-1.689-1.02-2-2a6.575 6.575 0 0 1 3-3Z" opacity=".512"/>
  <path fill="#8080ee" d="M762.5 1313.5c2.032.55 3.032 1.88 3 4h-3v-4Z" opacity=".208"/>
  <path fill="#8080bb" d="M941.5 1317.5v1c-1.548.32-2.215 1.32-2 3 0 .67-.333 1-1 1v-5h3Z" opacity=".969"/>
  <path fill="#8080fd" d="M941.5 1318.5c.889 1.53.222 2.53-2 3-.215-1.68.452-2.68 2-3Z" opacity=".19"/>
  <path fill="#8080e0" d="M903.5 1317.5c.262 1.48-.071 2.81-1 4-.798-.46-1.131-1.12-1-2 .333-1 1-1.67 2-2Z" opacity=".396"/>
  <path fill="#8080f5" d="M899.5 1321.5v4h-3c-.032-2.12.968-3.45 3-4Z" opacity=".157"/>
  <path fill="#8080ff" d="M730.5 1324.5c1.333 0 2 .67 2 2-1.175.22-2.175-.11-3-1 .124-.61.457-.94 1-1Z" opacity=".234"/>
  <path fill="#8080c4" d="M730.5 1324.5v-1h3v5c-.838-.34-1.172-1.01-1-2 0-1.33-.667-2-2-2Z" opacity=".759"/>
  <path fill="#8080d1" d="M773.5 1326.5c1.291-.24 2.291.1 3 1-.321 1.55-1.321 2.21-3 2v-3Z" opacity=".443"/>
  <path fill="#8080f6" d="M733.5 1329.5h3c1.581 1.64 2.247 3.64 2 6-2.517-1.39-4.184-3.39-5-6Z" opacity=".219"/>
  <path fill="#8080c4" d="M932.5 1332.5v1c-1.109.06-2.109.39-3 1 .321-1.55 1.321-2.21 3-2Z" opacity=".533"/>
  <path fill="#807fa1" d="M736.5 1329.5c.996-.09 1.829.25 2.5 1 .494 1.63.66 3.3.5 5h-1c.247-2.36-.419-4.36-2-6Z" opacity=".435"/>
  <path fill="#8080fe" d="M932.5 1333.5c-.667 2-2 3.33-4 4a5.72 5.72 0 0 1 1-3c.891-.61 1.891-.94 3-1Z" opacity=".34"/>
  <path fill="#8080cc" d="M929.5 1334.5a5.72 5.72 0 0 0-1 3c.172.99-.162 1.66-1 2-.423-2.28.244-3.95 2-5Z" opacity=".182"/>
  <path fill="#8080ea" d="M796.5 1339.5h2c0 1.33-.667 2-2 2v-2Z" opacity=".604"/>
  <path fill="#8080ba" d="M798.5 1339.5c.838.34 1.172 1.01 1 2-1 1.33-2 1.33-3 0 1.333 0 2-.67 2-2Z" opacity=".882"/>
  <path fill="#8080c1" d="M803.5 1343.5c1.291-.24 2.291.1 3 1-.321 1.55-1.321 2.21-3 2v-3Zm63 0v3c-1.679.21-2.679-.45-3-2 .709-.9 1.709-1.24 3-1Z"/>
  <path fill="#807fa5" d="M754.5 1349.5h-1c.219-1.18-.114-2.18-1-3-.798.46-1.131 1.12-1 2-.667 0-1-.33-1-1 .683-1.68 2.017-2.34 4-2v4Z" opacity=".929"/>
  <path fill="#8080e4" d="M753.5 1349.5c-.992.17-1.658-.16-2-1-.131-.88.202-1.54 1-2 .886.82 1.219 1.82 1 3Z" opacity=".143"/>
  <path fill="#8180cb" d="M847.5 1346.5c.262 1.48-.071 2.81-1 4-1.022-.36-1.689-1.02-2-2 .321-1.55 1.321-2.21 3-2Z" opacity=".969"/>
  <path fill="#8080e3" d="M774.5 1364.5c-.992.17-1.658-.16-2-1-.131-.88.202-1.54 1-2 .886.82 1.219 1.82 1 3Z" opacity=".463"/>
  <path fill="#8080a9" d="M786.5 1369.5h-1c-.667-2.67-1.333-2.67-2 0-.838-.34-1.172-1.01-1-2 1.068-.93 2.401-1.27 4-1v3Z" opacity=".078"/>
  <path fill="#8080ea" d="M785.5 1369.5h-2c.667-2.67 1.333-2.67 2 0Z" opacity=".445"/>
  <path fill="#e580d4" d="M795.5 1373.5c-1.679.21-2.679-.45-3-2 .709-.9 1.709-1.24 3-1v3Z" opacity=".196"/>
  <path fill="#e880d6" d="M877.5 1374.5c-.709.9-1.709 1.24-3 1v-3c1.679-.21 2.679.45 3 2Z" opacity=".055"/>
  <path fill="#8080cf" d="M828.5 1379.5h-4c.12-1.09.787-1.75 2-2 1.213.25 1.88.91 2 2Z"/>
  <path fill="#8080bd" d="M853.5 1379.5h-3c1-2.67 2-2.67 3 0Z"/>
</svg>
